<?xml version="1.0" encoding="utf-8"?>
<!-- Generator: Adobe Illustrator 26.0.0, SVG Export Plug-In . SVG Version: 6.00 Build 0)  -->
<svg version="1.1" id="Camada_1" xmlns="http://www.w3.org/2000/svg" xmlns:xlink="http://www.w3.org/1999/xlink" x="0px" y="0px"
	 viewBox="0 0 100 100" style="enable-background:new 0 0 100 100;" xml:space="preserve">
<style type="text/css">
	.st0{fill:#FFFFFF;}
	.st1{fill:#201F20;}
</style>
<g>
	<g>
		<g>
			<path class="st0" d="M88.95,86.51c-0.98-6.47-1.8-8.92-10.78-9.96c-3.39-0.39-12.64-1.34-16.08-3.31
				c-3.44-1.97-2.89-11.79-2.89-11.79h-9.39h-9.39c0,0,0.55,9.83-2.89,11.79c-3.44,1.96-12.69,2.92-16.08,3.31
				c-8.97,1.04-9.79,3.49-10.78,9.96c-0.79,5.19-0.82,12.12-0.82,12.12h39.96h39.96C89.77,98.63,89.74,91.69,88.95,86.51z"/>
			<path class="st1" d="M89.77,100H9.85c-0.36,0-0.71-0.15-0.97-0.4c-0.26-0.26-0.4-0.61-0.4-0.97c0-0.29,0.04-7.1,0.84-12.32
				c1.09-7.18,2.41-10,11.97-11.11l0.64-0.07c3.57-0.4,11.92-1.35,14.92-3.06c1.86-1.06,2.41-6.8,2.2-10.53
				c-0.02-0.38,0.12-0.74,0.37-1.02c0.26-0.27,0.62-0.43,1-0.43H59.2c0.38,0,0.74,0.16,1,0.43c0.26,0.27,0.39,0.64,0.37,1.02
				c-0.21,3.73,0.34,9.47,2.2,10.53c3,1.71,11.35,2.66,14.92,3.06l0.64,0.07c9.57,1.11,10.88,3.93,11.97,11.11
				c0.8,5.22,0.84,12.03,0.84,12.32c0,0.36-0.14,0.71-0.4,0.97C90.49,99.85,90.14,100,89.77,100z M11.24,97.26h77.14
				c-0.05-2.26-0.22-6.88-0.78-10.54c-0.89-5.86-1.19-7.83-9.58-8.8l-0.63-0.07c-4.05-0.46-12.48-1.41-15.97-3.41
				c-3.31-1.89-3.66-8.44-3.63-11.61H41.84c0.03,3.18-0.32,9.72-3.63,11.61c-3.49,1.99-11.92,2.95-15.97,3.41l-0.63,0.07
				c-8.39,0.97-8.69,2.95-9.58,8.8C11.47,90.37,11.3,94.99,11.24,97.26z"/>
		</g>
	</g>
	<g>
		<g>
			<path class="st0" d="M70.96,36.92h-0.42c0.18-1.44,0.36-2.85,0.53-4.19c0.9-6.94,2.94-27.21-21.26-27.21S27.65,25.79,28.55,32.73
				c0.17,1.34,0.35,2.75,0.53,4.19h-0.42c-3.68-2.72-3.99,4.39-2.46,6.82c1.27,2.01,1.3,2.23,2.07,4.45
				c0.56,1.64,1.51,1.85,2.29,1.67c0.1,0.97,0.18,1.81,0.24,2.48c0.34,3.74,9.33,11.23,11.37,13.57c1.91,2.2,5.09,1.34,6.11,1.3
				c1.03-0.05,1.52-0.07,1.52-0.07s0.49,0.03,1.52,0.07c1.02,0.05,4.2,0.9,6.11-1.3c2.04-2.34,11.03-9.83,11.36-13.57
				c0.06-0.67,0.15-1.52,0.25-2.49c0.79,0.18,1.73-0.04,2.29-1.67c0.77-2.22,0.79-2.43,2.07-4.45
				C74.95,41.31,74.64,34.19,70.96,36.92z"/>
			<path class="st1" d="M53.69,68.79c-0.74,0-1.41-0.09-1.9-0.15c-0.21-0.03-0.38-0.05-0.51-0.06l-1.46-0.07l-1.46,0.07
				c-0.13,0.01-0.31,0.03-0.51,0.06c-0.49,0.06-1.16,0.15-1.9,0.15c-2.05,0-3.66-0.66-4.8-1.97c-0.47-0.54-1.42-1.46-2.52-2.52
				c-4.85-4.66-8.89-8.77-9.17-11.83c-0.03-0.38-0.07-0.81-0.12-1.29c-0.8-0.22-1.76-0.86-2.34-2.54l-0.16-0.47
				c-0.6-1.74-0.68-1.97-1.77-3.69c-1.28-2.03-1.45-5.96-0.36-7.95c0.62-1.11,1.62-1.68,2.76-1.57c-0.09-0.69-0.18-1.38-0.27-2.04
				c-0.48-3.66-1.93-14.8,4.46-22.06c3.9-4.44,10.01-6.69,18.17-6.69c8.16,0,14.27,2.25,18.17,6.69c6.38,7.27,4.93,18.4,4.45,22.06
				c-0.09,0.66-0.17,1.35-0.26,2.04c1.14-0.11,2.15,0.46,2.76,1.57c1.1,1.99,0.92,5.93-0.36,7.95c-1.09,1.72-1.17,1.95-1.76,3.69
				l-0.17,0.48c-0.58,1.68-1.54,2.32-2.34,2.54c-0.05,0.48-0.09,0.92-0.13,1.3C69.9,55.53,65.86,59.64,61,64.3
				c-1.1,1.06-2.05,1.97-2.52,2.51C57.35,68.13,55.73,68.79,53.69,68.79z M49.81,65.77c0.02,0,0.05,0,0.07,0l1.51,0.07
				c0.18,0.01,0.44,0.04,0.73,0.07c0.44,0.06,0.99,0.13,1.56,0.13c1.25,0,2.12-0.33,2.73-1.03c0.55-0.64,1.5-1.54,2.69-2.69
				c2.84-2.73,8.13-7.82,8.34-10.11c0.06-0.68,0.15-1.53,0.25-2.5c0.04-0.39,0.25-0.75,0.56-0.97c0.32-0.23,0.72-0.31,1.1-0.22
				c0.05,0.01,0.1,0.02,0.14,0.02c0.26,0,0.5-0.67,0.55-0.8l0.16-0.47c0.66-1.91,0.82-2.33,2.04-4.26c0.92-1.46,0.77-4.88,0.14-5.34
				c0,0.02-0.21,0.05-0.62,0.35c-0.24,0.18-0.52,0.27-0.82,0.27h-0.42c-0.39,0-0.77-0.17-1.03-0.46c-0.26-0.29-0.38-0.69-0.33-1.08
				c0.18-1.44,0.36-2.86,0.53-4.2c0.44-3.36,1.77-13.56-3.79-19.9c-3.35-3.82-8.77-5.76-16.11-5.76c-7.33,0-12.75,1.94-16.11,5.76
				c-5.56,6.33-4.23,16.54-3.79,19.9c0.17,1.34,0.35,2.76,0.53,4.2c0.05,0.39-0.07,0.78-0.33,1.08c-0.26,0.29-0.63,0.46-1.03,0.46
				h-0.42c-0.29,0-0.58-0.09-0.82-0.27c-0.46-0.34-0.67-0.34-0.67-0.34c-0.58,0.42-0.74,3.87,0.19,5.33
				c1.22,1.93,1.39,2.35,2.04,4.27l0.16,0.46c0.05,0.14,0.29,0.8,0.56,0.8c0.04,0,0.09-0.01,0.14-0.02c0.38-0.09,0.78,0,1.1,0.22
				c0.32,0.23,0.52,0.58,0.56,0.97c0.1,0.97,0.18,1.82,0.24,2.5c0.21,2.29,5.5,7.37,8.34,10.1c1.19,1.15,2.14,2.06,2.69,2.69
				c0.61,0.7,1.48,1.03,2.73,1.03c0.57,0,1.12-0.07,1.56-0.13c0.3-0.04,0.55-0.07,0.74-0.07l1.51-0.07
				C49.76,65.77,49.79,65.77,49.81,65.77z"/>
		</g>
	</g>
	<g>
		<g>
			<path class="st0" d="M66.15,5.52c-5.12-2.25-7.6-1-7.6-1l0,0.01c-1.38-1.47-4.92-3.96-12.7-2.89C35.03,3.1,33.97,5.52,29.96,4.58
				c0,0-1.76,3.07-2.58,7c-1.57,7.5-1.57,15.25,1.49,24.42c0.9,3.74,1.87,6.41,1.87,6.41s-1.02-13.26,1.02-18.51
				c2.05-5.25,9.2-6.39,11.58-4.09c2.38,2.29,6.47,2.03,6.47,2.03s4.09,0.27,6.47-2.03c2.01-1.93,7.4-1.42,10.27,1.94l0.95,1.38
				c0.13,0.25,0.26,0.5,0.36,0.77c2.04,5.24,1.02,18.51,1.02,18.51s2.22-6.1,3.05-12.79h0C74.77,12.9,70.81,7.57,66.15,5.52z"/>
			<path class="st1" d="M30.74,43.78c-0.56,0-1.09-0.35-1.29-0.9c-0.04-0.11-1.01-2.79-1.91-6.56c-2.82-8.41-3.3-16.39-1.5-25.02
				c0.85-4.1,2.66-7.27,2.73-7.4c0.3-0.53,0.91-0.8,1.5-0.65c1.67,0.39,2.75,0.07,4.87-0.6C37.32,1.95,40.31,1,45.66,0.27
				C46.97,0.09,48.24,0,49.42,0c5.07,0,7.98,1.66,9.49,2.97c0.43-0.09,1.01-0.17,1.72-0.17c1.82,0,3.86,0.49,6.07,1.46
				c6.93,3.05,9.02,11.18,6.58,25.58c-0.83,6.7-3.02,12.77-3.11,13.03c-0.24,0.64-0.91,1.01-1.58,0.87
				c-0.67-0.14-1.13-0.76-1.08-1.44c0.01-0.13,0.97-13.01-0.93-17.9c-0.07-0.19-0.17-0.38-0.27-0.56l-0.85-1.25
				c-1.35-1.54-3.59-2.53-5.72-2.53c-1.09,0-2.03,0.28-2.51,0.74c-2.27,2.18-5.67,2.42-7.02,2.42c-0.18,0-0.32,0-0.4-0.01
				c-0.08,0-0.22,0.01-0.4,0.01c-1.35,0-4.75-0.24-7.02-2.42c-0.48-0.46-1.43-0.74-2.53-0.74c-2.47,0-5.66,1.36-6.82,4.35
				c-1.75,4.5-1.07,15.77-0.95,17.64c0.03,0.12,0.05,0.24,0.05,0.37c0,0.76-0.62,1.37-1.37,1.37
				C30.76,43.78,30.75,43.78,30.74,43.78z M30.71,6.1c-0.55,1.13-1.47,3.27-1.99,5.76c-1.46,6.98-1.32,13.52,0.45,20.32
				c0.12-3.29,0.48-6.62,1.31-8.77c1.64-4.19,6.01-6.09,9.38-6.09c1.85,0,3.42,0.54,4.43,1.51c1.59,1.53,4.32,1.65,5.12,1.65
				c0.18,0,0.29-0.01,0.31-0.01c0.06,0,0.12,0,0.17,0c0.02,0,0.13,0.01,0.31,0.01c0.8,0,3.53-0.12,5.12-1.65
				c1.01-0.97,2.58-1.51,4.41-1.51c2.97,0,5.98,1.36,7.85,3.54c0.03,0.04,0.06,0.08,0.09,0.12l0.95,1.38
				c0.03,0.05,0.06,0.09,0.08,0.14c0.15,0.29,0.3,0.58,0.42,0.9c0.72,1.85,1.08,4.57,1.25,7.38c0.07-0.44,0.13-0.88,0.18-1.32
				c2.89-17.09-1.45-21.12-4.97-22.67c-2.32-1.02-3.98-1.23-4.97-1.23c-0.88,0-1.37,0.17-1.48,0.21c-0.13,0.06-0.27,0.11-0.41,0.13
				c-0.44,0.07-0.89-0.09-1.2-0.42c-0.95-1.01-3.26-2.72-8.13-2.72c-1.06,0-2.2,0.08-3.39,0.24c-5.11,0.7-7.97,1.6-10.06,2.27
				C34.02,5.87,32.52,6.32,30.71,6.1z"/>
		</g>
	</g>
	<g>
		<path class="st1" d="M54.41,61.16c-0.76,0-1.37-0.61-1.37-1.37c0-0.76,0.62-1.37,1.37-1.37c7.11,0,12.26-1.73,15.29-5.14
			c3.48-3.91,2.95-8.82,2.95-8.87c-0.09-0.75,0.45-1.43,1.2-1.52c0.75-0.09,1.43,0.44,1.52,1.19c0.03,0.25,0.71,6.13-3.58,10.99
			C68.21,59.1,62.36,61.16,54.41,61.16z"/>
	</g>
	<g>
		<g>
			<path class="st0" d="M78.11,39.97c0-5.05-2.09-9.14-4.67-9.16v0h-1.68v0.56c-1.9,1.29-3.42,4.65-3.42,8.6
				c0,3.95,1.52,7.32,3.42,8.6v0.57h1.68v0C76.02,49.1,78.11,45.01,78.11,39.97z"/>
			<path class="st1" d="M73.44,50.5h-1.68c-0.72,0-1.31-0.56-1.37-1.27c-2.07-1.83-3.42-5.43-3.42-9.27s1.35-7.44,3.42-9.27
				c0.05-0.71,0.65-1.27,1.37-1.27h1.68c0.05,0,0.1,0,0.15,0.01c3.37,0.15,5.89,4.64,5.89,10.53c0,5.89-2.52,10.38-5.89,10.53
				C73.54,50.5,73.49,50.5,73.44,50.5z M72.87,47.76h0.47c0.03,0,0.06,0,0.09,0c1.38-0.01,3.31-2.99,3.31-7.79
				c0-4.81-1.93-7.78-3.31-7.79c-0.03,0-0.06,0-0.09,0h-0.47c-0.09,0.13-0.21,0.24-0.34,0.33c-1.4,0.95-2.82,3.82-2.82,7.47
				s1.42,6.52,2.82,7.47C72.66,47.52,72.78,47.63,72.87,47.76z"/>
		</g>
		<g>
			<path class="st0" d="M73.56,47.2c0,1.2-0.78,2.17-1.74,2.17h-1.74c-0.96,0-1.74-0.97-1.74-2.17V32.73c0-1.2,0.78-2.17,1.74-2.17
				h1.74c0.96,0,1.74,0.97,1.74,2.17V47.2z"/>
			<path class="st1" d="M71.82,50.74h-1.74c-1.71,0-3.11-1.59-3.11-3.54V32.73c0-1.95,1.4-3.54,3.11-3.54h1.74
				c1.72,0,3.11,1.59,3.11,3.54V47.2C74.93,49.15,73.54,50.74,71.82,50.74z M70.08,31.94c-0.09,0-0.37,0.28-0.37,0.8V47.2
				c0,0.51,0.28,0.8,0.37,0.8h1.74c0.09,0,0.37-0.28,0.37-0.8V32.73c0-0.51-0.28-0.8-0.37-0.8H70.08z"/>
		</g>
		<g>
			<path class="st0" d="M21.51,39.97c0-5.05,2.09-9.14,4.67-9.16v0h1.68v0.56c1.9,1.29,3.42,4.65,3.42,8.6
				c0,3.95-1.52,7.32-3.42,8.6v0.57h-1.68v0C23.6,49.1,21.51,45.01,21.51,39.97z"/>
			<path class="st1" d="M27.86,50.5h-1.68c-0.05,0-0.1,0-0.15-0.01c-3.37-0.15-5.89-4.64-5.89-10.53c0-5.89,2.52-10.38,5.9-10.53
				c0.05-0.01,0.1-0.01,0.14-0.01h1.68c0.72,0,1.31,0.56,1.37,1.27c2.07,1.83,3.42,5.43,3.42,9.27s-1.35,7.44-3.42,9.27
				C29.18,49.95,28.59,50.5,27.86,50.5z M26.29,47.76h0.47c0.09-0.13,0.21-0.24,0.34-0.33c1.4-0.95,2.82-3.82,2.82-7.47
				s-1.42-6.52-2.82-7.47c-0.13-0.09-0.25-0.2-0.34-0.33h-0.47c-0.03,0-0.06,0-0.09,0c-1.38,0.01-3.31,2.99-3.31,7.79
				c0,4.81,1.93,7.78,3.31,7.79C26.23,47.76,26.26,47.76,26.29,47.76z"/>
		</g>
		<g>
			<path class="st0" d="M26.06,47.2c0,1.2,0.78,2.17,1.74,2.17h1.74c0.96,0,1.74-0.97,1.74-2.17V32.73c0-1.2-0.78-2.17-1.74-2.17
				H27.8c-0.96,0-1.74,0.97-1.74,2.17V47.2z"/>
			<path class="st1" d="M29.54,50.74H27.8c-1.71,0-3.11-1.59-3.11-3.54V32.73c0-1.95,1.4-3.54,3.11-3.54h1.74
				c1.72,0,3.11,1.59,3.11,3.54V47.2C32.65,49.15,31.26,50.74,29.54,50.74z M27.8,31.94c-0.09,0-0.37,0.28-0.37,0.8V47.2
				c0,0.51,0.28,0.8,0.37,0.8h1.74c0.09,0,0.37-0.28,0.37-0.8V32.73c0-0.51-0.28-0.8-0.37-0.8H27.8z"/>
		</g>
		<g>
			<path class="st1" d="M73.46,32.9c-0.76,0-1.37-0.61-1.37-1.37c0-12.86-9.99-23.32-22.28-23.32c-12.28,0-22.28,10.46-22.28,23.32
				c0,0.76-0.61,1.37-1.37,1.37c-0.76,0-1.37-0.61-1.37-1.37c0-14.37,11.22-26.06,25.02-26.06c13.8,0,25.02,11.69,25.02,26.06
				C74.83,32.29,74.22,32.9,73.46,32.9z"/>
		</g>
	</g>
	<g>
		<path class="st0" d="M58.47,59.82c0,1.04-0.84,1.88-1.88,1.88h-6.43c-1.04,0-1.88-0.84-1.88-1.88v-0.06
			c0-1.04,0.84-1.88,1.88-1.88h6.43c1.04,0,1.88,0.84,1.88,1.88V59.82z"/>
		<path class="st1" d="M56.59,63.07h-6.43c-1.79,0-3.25-1.46-3.25-3.25c0-1.85,1.46-3.31,3.25-3.31h6.43c1.79,0,3.25,1.46,3.25,3.25
			C59.84,61.61,58.38,63.07,56.59,63.07z M50.16,59.24c-0.28,0-0.51,0.23-0.51,0.51c0,0.34,0.23,0.57,0.51,0.57h6.43
			c0.28,0,0.51-0.23,0.51-0.51c0-0.34-0.23-0.57-0.51-0.57H50.16z"/>
	</g>
	<g>
		<path class="st0" d="M49.61,74.1l-9.94-4.29h-0.01c-0.44,1.53-1.11,2.84-2.14,3.43c-3.44,1.96-12.69,2.92-16.08,3.31
			c-8.97,1.04-9.79,3.49-10.78,9.96c-0.79,5.19-0.82,12.12-0.82,12.12h39.96h39.96c0,0-0.03-6.93-0.82-12.12
			c-0.98-6.47-1.8-8.92-10.78-9.96c-3.39-0.39-12.64-1.34-16.08-3.31c-1.03-0.59-1.7-1.9-2.14-3.43l-0.01,0L49.61,74.1z"/>
		<path class="st1" d="M89.8,100c-0.01,0-0.02,0-0.03,0H9.85c-0.36,0-0.71-0.15-0.97-0.4c-0.26-0.26-0.4-0.61-0.4-0.97
			c0-0.29,0.04-7.1,0.84-12.32c1.09-7.18,2.41-10,11.97-11.11l0.64-0.07c3.57-0.4,11.92-1.35,14.92-3.06
			c0.58-0.33,1.11-1.26,1.5-2.61c0.22-0.77,1.13-1.2,1.87-0.88l9.41,4.06l9.8-4.07c0.43-0.17,0.91-0.13,1.29,0.13
			c0.27,0.18,0.47,0.45,0.56,0.77c0.39,1.35,0.92,2.28,1.5,2.61c3,1.71,11.35,2.66,14.92,3.06l0.64,0.07
			c9.57,1.11,10.88,3.93,11.97,11.11c0.71,4.7,0.82,10.67,0.83,12.04c0.02,0.09,0.03,0.19,0.03,0.29C91.17,99.39,90.56,100,89.8,100
			z M11.24,97.26h77.14c-0.05-2.26-0.22-6.88-0.78-10.54c-0.89-5.86-1.19-7.83-9.58-8.8l-0.63-0.07
			c-4.05-0.46-12.48-1.41-15.97-3.41c-0.95-0.54-1.7-1.47-2.27-2.8l-9,3.74c-0.34,0.14-0.73,0.14-1.07-0.01l-8.6-3.71
			c-0.57,1.32-1.32,2.24-2.26,2.78c-3.49,1.99-11.92,2.95-15.98,3.41l-0.63,0.07c-8.39,0.97-8.69,2.95-9.58,8.8
			C11.47,90.37,11.3,94.99,11.24,97.26z"/>
	</g>
	<g>
		<polygon class="st0" points="50.3,79.41 49.81,78.73 49.32,79.41 44.55,97.78 47.28,98.63 49.81,98.63 52.34,98.63 55.07,97.78 		
			"/>
		<path class="st1" d="M52.34,100h-5.06c-0.14,0-0.27-0.02-0.4-0.06l-2.73-0.85c-0.7-0.22-1.11-0.95-0.92-1.65L48,79.06
			c0.04-0.16,0.11-0.32,0.21-0.45l0.48-0.68c0.26-0.36,0.67-0.57,1.12-0.57l0,0c0.44,0,0.86,0.21,1.12,0.57l0.48,0.68
			c0.1,0.14,0.17,0.29,0.21,0.45l4.78,18.38c0.18,0.71-0.22,1.44-0.92,1.65l-2.73,0.85C52.62,99.98,52.48,100,52.34,100z
			 M47.49,97.26h4.65l1.28-0.4l-3.6-13.87l-3.6,13.87L47.49,97.26z"/>
	</g>
	<g>
		<path class="st0" d="M31.28,75.16L31.28,75.16c-3.71,0.73-7.81,1.16-9.84,1.39c-8.97,1.04-9.79,3.49-10.78,9.96
			c-0.79,5.19-0.82,12.12-0.82,12.12h37.43L31.28,75.16z"/>
		<path class="st1" d="M47.28,100H9.85c-0.36,0-0.71-0.15-0.97-0.4c-0.26-0.26-0.4-0.61-0.4-0.97c0-0.29,0.04-7.1,0.84-12.32
			c1.09-7.18,2.41-10,11.97-11.11l0.62-0.07c2.17-0.24,5.8-0.66,9.12-1.31c0.54-0.11,1.09,0.12,1.39,0.57l16,23.47
			c0.29,0.42,0.32,0.96,0.08,1.41C48.25,99.72,47.79,100,47.28,100z M11.24,97.26h33.44L30.66,76.67c-3.16,0.58-6.43,0.95-8.44,1.17
			l-0.61,0.07c-8.39,0.97-8.69,2.95-9.58,8.8C11.47,90.38,11.3,95,11.24,97.26z"/>
	</g>
	<g>
		<path class="st0" d="M89.77,98.63c0,0-0.03-6.93-0.82-12.12c-0.98-6.47-1.8-8.92-10.78-9.96c-2.02-0.23-6.12-0.67-9.84-1.39l0,0
			l-16,23.47H89.77z"/>
		<path class="st1" d="M89.77,100H52.34c-0.51,0-0.97-0.28-1.21-0.73c-0.24-0.45-0.21-0.99,0.08-1.41l16-23.47
			c0.31-0.45,0.86-0.68,1.4-0.57c3.31,0.65,6.94,1.06,9.11,1.31l0.62,0.07c9.57,1.11,10.88,3.93,11.97,11.11
			c0.8,5.22,0.84,12.03,0.84,12.32c0,0.36-0.14,0.71-0.4,0.97C90.49,99.85,90.14,100,89.77,100z M54.94,97.26h33.44
			c-0.05-2.26-0.22-6.88-0.78-10.54c-0.89-5.86-1.19-7.83-9.58-8.8l-0.61-0.07c-2.02-0.23-5.28-0.6-8.44-1.17L54.94,97.26z"/>
	</g>
	<g>
		<polygon class="st0" points="46.39,77.41 49.61,80.83 53.37,77.41 49.61,74.1 		"/>
		<path class="st1" d="M49.61,82.2c-0.36,0-0.73-0.14-1-0.43l-3.22-3.42c-0.5-0.54-0.5-1.37,0.02-1.9l3.22-3.3
			c0.51-0.52,1.34-0.55,1.89-0.07l3.76,3.3c0.29,0.26,0.46,0.63,0.46,1.02c0.01,0.39-0.16,0.76-0.45,1.03l-3.76,3.42
			C50.28,82.08,49.95,82.2,49.61,82.2z M48.29,77.42l1.4,1.48l1.63-1.48l-1.63-1.43L48.29,77.42z"/>
	</g>
	<g>
		<polygon class="st0" points="49.61,74.1 43.05,80.83 36.48,74.1 39.67,69.82 		"/>
		<path class="st1" d="M43.05,82.2c-0.37,0-0.72-0.15-0.98-0.41l-6.56-6.73c-0.47-0.48-0.52-1.23-0.12-1.78L38.57,69
			c0.38-0.51,1.06-0.69,1.64-0.44l9.94,4.29c0.41,0.18,0.71,0.55,0.8,0.99c0.09,0.44-0.05,0.9-0.36,1.22l-6.56,6.73
			C43.77,82.05,43.42,82.2,43.05,82.2z M38.28,73.98l4.77,4.88l4.19-4.29l-7.12-3.07L38.28,73.98z"/>
	</g>
	<g>
		<polygon class="st0" points="49.61,74.1 56.18,80.83 62.74,74.1 59.56,69.82 		"/>
		<path class="st1" d="M56.18,82.2c-0.37,0-0.72-0.15-0.98-0.41l-6.57-6.73c-0.32-0.32-0.45-0.78-0.36-1.22
			c0.09-0.44,0.39-0.81,0.8-0.99l9.94-4.29c0.58-0.25,1.26-0.07,1.64,0.44l3.19,4.29c0.4,0.54,0.35,1.29-0.12,1.78l-6.56,6.73
			C56.9,82.05,56.55,82.2,56.18,82.2z M51.99,74.57l4.19,4.29l4.77-4.88l-1.84-2.48L51.99,74.57z"/>
	</g>
</g>
</svg>
