<?xml version="1.0" encoding="utf-8"?>
<!-- Generator: Adobe Illustrator 26.0.0, SVG Export Plug-In . SVG Version: 6.00 Build 0)  -->
<svg version="1.1" id="Camada_1" xmlns="http://www.w3.org/2000/svg" xmlns:xlink="http://www.w3.org/1999/xlink" x="0px" y="0px"
	 viewBox="0 0 100 100" style="enable-background:new 0 0 100 100;" xml:space="preserve">
<style type="text/css">
	.st0{fill:url(#SVGID_1_);}
	.st1{fill:url(#SVGID_00000142164929152079634260000007939243785945690250_);}
	.st2{opacity:0.25;fill:#FFFFFF;}
</style>
<g>
	<g>
		<linearGradient id="SVGID_1_" gradientUnits="userSpaceOnUse" x1="11.1652" y1="9.5488" x2="63.7144" y2="62.098">
			<stop  offset="0" style="stop-color:#00AFE0"/>
			<stop  offset="0.8166" style="stop-color:#2362AC"/>
		</linearGradient>
		<path class="st0" d="M51.6,54.43c1.16-2.04,1.92-4.27,2.71-6.64c0.83-2.46,1.69-5,3.05-7.34c1.79-3.08,4.43-5.63,7.51-7.41V13.71
			c0-2.44-1.98-4.42-4.42-4.42H42.77c-2.44,0-4.42,1.98-4.42,4.42v23.03H15.33c-2.44,0-4.42,1.98-4.42,4.42v17.69
			c0,2.44,1.98,4.42,4.42,4.42h22.85C43.69,62.61,48.84,59.27,51.6,54.43z"/>
		
			<linearGradient id="SVGID_00000141427408100938588430000013963853563097031824_" gradientUnits="userSpaceOnUse" x1="54.8628" y1="53.2464" x2="90.7236" y2="89.1072">
			<stop  offset="0" style="stop-color:#00AFE0"/>
			<stop  offset="0.8166" style="stop-color:#2362AC"/>
		</linearGradient>
		<path style="fill:url(#SVGID_00000141427408100938588430000013963853563097031824_);" d="M87.91,36.74H64.92
			c-1.96,1.41-3.63,3.21-4.85,5.3c-1.2,2.07-1.97,4.35-2.79,6.77c-0.81,2.41-1.65,4.89-2.96,7.19c-3.27,5.74-9.42,9.69-15.97,10.41
			v19.89c0,2.44,1.98,4.42,4.42,4.42h17.69c2.44,0,4.42-1.98,4.42-4.42V63.26h23.03c2.44,0,4.42-1.98,4.42-4.42V41.16
			C92.33,38.72,90.35,36.74,87.91,36.74z"/>
	</g>
	<path class="st2" d="M64.77,12.75c-0.44-1.98-2.2-3.46-4.31-3.46H42.77c-2.44,0-4.42,1.98-4.42,4.42v23.03H15.33
		c-2.44,0-4.42,1.98-4.42,4.42v17.69c0,0.56,0.11,1.08,0.29,1.57c10.35,0.03,20.67-4.83,27.06-13c2.76-3.53,4.81-7.55,6.98-11.81
		c2.25-4.42,4.58-9,7.81-13.05C56.24,18.54,60.27,15.22,64.77,12.75z"/>
</g>
</svg>
